<svg width="33" height="32" viewBox="0 0 33 32" fill="none" xmlns="http://www.w3.org/2000/svg">
<path d="M16.5 4C9.16667 4 3.16667 8.77333 3.16667 14.6667C3.23334 17.5333 4.58 20.2267 6.83334 22C6.83334 22.8 6.27334 24.8933 3.16667 28C6.32667 27.8533 9.35334 26.6667 11.7933 24.6667C13.3133 25.1067 14.9133 25.3333 16.5 25.3333C23.8333 25.3333 29.8333 20.56 29.8333 14.6667C29.8333 8.77333 23.8333 4 16.5 4ZM16.5 22.6667C10.6067 22.6667 5.83334 19.08 5.83334 14.6667C5.83334 10.2533 10.6067 6.66667 16.5 6.66667C22.3933 6.66667 27.1667 10.2533 27.1667 14.6667C27.1667 19.08 22.3933 22.6667 16.5 22.6667ZM23.1667 16V13.3333H20.5V16H23.1667ZM17.8333 16V13.3333H15.1667V16H17.8333ZM12.5 16V13.3333H9.83334V16H12.5Z" fill="white"/>
</svg>
