<svg width="41" height="41" viewBox="0 0 41 41" fill="none" xmlns="http://www.w3.org/2000/svg">
<path d="M20.5 29.6666C24.3833 29.6666 27.6666 27.2333 29.0166 23.8333H11.9833C13.3166 27.2333 16.6166 29.6666 20.5 29.6666ZM14.6666 18.8333C15.3297 18.8333 15.9656 18.5699 16.4344 18.101C16.9033 17.6322 17.1666 16.9963 17.1666 16.3333C17.1666 15.6702 16.9033 15.0343 16.4344 14.5655C15.9656 14.0966 15.3297 13.8333 14.6666 13.8333C14.0036 13.8333 13.3677 14.0966 12.8989 14.5655C12.43 15.0343 12.1666 15.6702 12.1666 16.3333C12.1666 16.9963 12.43 17.6322 12.8989 18.101C13.3677 18.5699 14.0036 18.8333 14.6666 18.8333ZM26.3333 18.8333C26.9964 18.8333 27.6322 18.5699 28.1011 18.101C28.5699 17.6322 28.8333 16.9963 28.8333 16.3333C28.8333 15.6702 28.5699 15.0343 28.1011 14.5655C27.6322 14.0966 26.9964 13.8333 26.3333 13.8333C25.6703 13.8333 25.0344 14.0966 24.5655 14.5655C24.0967 15.0343 23.8333 15.6702 23.8333 16.3333C23.8333 16.9963 24.0967 17.6322 24.5655 18.101C25.0344 18.5699 25.6703 18.8333 26.3333 18.8333ZM20.5 33.8333C16.9638 33.8333 13.5724 32.4285 11.0719 29.928C8.5714 27.4275 7.16665 24.0361 7.16665 20.4999C7.16665 16.9637 8.5714 13.5723 11.0719 11.0718C13.5724 8.57134 16.9638 7.16659 20.5 7.16659C24.0362 7.16659 27.4276 8.57134 29.9281 11.0718C32.4286 13.5723 33.8333 16.9637 33.8333 20.4999C33.8333 24.0361 32.4286 27.4275 29.9281 29.928C27.4276 32.4285 24.0362 33.8333 20.5 33.8333ZM20.5 3.83325C11.2833 3.83325 3.83331 11.3333 3.83331 20.4999C3.83331 24.9202 5.58926 29.1594 8.71487 32.285C10.2625 33.8327 12.0998 35.0603 14.1219 35.8979C16.144 36.7355 18.3113 37.1666 20.5 37.1666C24.9203 37.1666 29.1595 35.4106 32.2851 32.285C35.4107 29.1594 37.1666 24.9202 37.1666 20.4999C37.1666 18.3112 36.7355 16.144 35.898 14.1219C35.0604 12.0998 33.8327 10.2624 32.2851 8.71481C30.7374 7.16716 28.9001 5.9395 26.878 5.10193C24.8559 4.26435 22.6887 3.83325 20.5 3.83325Z" fill="white"/>
</svg>
