<svg width="40" height="41" viewBox="0 0 40 41" fill="none" xmlns="http://www.w3.org/2000/svg">
<path d="M33.3333 20.4999C33.3333 17.8628 32.5513 15.285 31.0863 13.0923C29.6212 10.8997 27.5388 9.19069 25.1024 8.18153C22.6661 7.17236 19.9852 6.90831 17.3988 7.42278C14.8124 7.93725 12.4366 9.20713 10.5719 11.0718C8.70721 12.9365 7.43734 15.3123 6.92287 17.8987C6.4084 20.4851 6.67244 23.166 7.68161 25.6024C8.69078 28.0387 10.3997 30.1211 12.5924 31.5862C14.7851 33.0513 17.3629 33.8333 20 33.8333C23.5362 33.8333 26.9276 32.4285 29.4281 29.928C31.9286 27.4275 33.3333 24.0361 33.3333 20.4999ZM36.6667 20.4999C36.6667 23.7963 35.6892 27.0186 33.8578 29.7594C32.0265 32.5002 29.4235 34.6365 26.3781 35.8979C23.3326 37.1594 19.9815 37.4894 16.7485 36.8463C13.5155 36.2033 10.5458 34.6159 8.21489 32.285C5.88401 29.9542 4.29667 26.9844 3.65358 23.7514C3.01049 20.5184 3.34055 17.1673 4.60201 14.1219C5.86347 11.0764 7.99968 8.47345 10.7405 6.64209C13.4813 4.81073 16.7036 3.83325 20 3.83325C22.1887 3.83325 24.356 4.26435 26.3781 5.10193C28.4002 5.9395 30.2375 7.16716 31.7851 8.71481C33.3328 10.2624 34.5604 12.0998 35.398 14.1219C36.2356 16.144 36.6667 18.3112 36.6667 20.4999ZM25.8333 13.8333C26.3278 13.8333 26.8111 13.9799 27.2223 14.2546C27.6334 14.5293 27.9538 14.9197 28.143 15.3765C28.3323 15.8334 28.3818 16.336 28.2853 16.821C28.1888 17.3059 27.9507 17.7514 27.6011 18.101C27.2515 18.4507 26.806 18.6888 26.3211 18.7852C25.8361 18.8817 25.3334 18.8322 24.8766 18.643C24.4198 18.4537 24.0294 18.1333 23.7547 17.7222C23.48 17.3111 23.3333 16.8277 23.3333 16.3333C23.3502 15.6755 23.619 15.0494 24.0843 14.5842C24.5495 14.1189 25.1756 13.8501 25.8333 13.8333ZM16.6667 16.3333C16.6667 16.8277 16.52 17.3111 16.2453 17.7222C15.9706 18.1333 15.5802 18.4537 15.1234 18.643C14.6666 18.8322 14.1639 18.8817 13.6789 18.7852C13.194 18.6888 12.7485 18.4507 12.3989 18.101C12.0493 17.7514 11.8112 17.3059 11.7147 16.821C11.6182 16.336 11.6678 15.8334 11.857 15.3765C12.0462 14.9197 12.3666 14.5293 12.7777 14.2546C13.1889 13.9799 13.6722 13.8333 14.1667 13.8333C14.8244 13.8501 15.4505 14.1189 15.9158 14.5842C16.381 15.0494 16.6498 15.6755 16.6667 16.3333ZM28.3333 25.4999H21.6667C20.4948 25.4982 19.3431 25.8054 18.3278 26.3906C17.3124 26.9758 16.4693 27.8183 15.8833 28.8333L13 27.1666C13.8782 25.6455 15.1416 24.3825 16.663 23.5047C18.1844 22.627 19.9102 22.1655 21.6667 22.1666H28.3333V25.4999Z" fill="white"/>
</svg>
